<?xml version="1.0" encoding="utf-8"?>
<!-- Generator: Adobe Illustrator 24.0.1, SVG Export Plug-In . SVG Version: 6.00 Build 0)  -->
<svg version="1.1" id="Layer_1" xmlns="http://www.w3.org/2000/svg" xmlns:xlink="http://www.w3.org/1999/xlink" x="0px" y="0px"
	 viewBox="0 0 512 512" style="enable-background:new 0 0 512 512;" xml:space="preserve">
<style type="text/css">
	.st0{fill:url(#SVGID_1_);}
	.st1{fill:url(#SVGID_2_);}
	.st2{opacity:0.3;enable-background:new    ;}
	.st3{fill:#FFFFFF;}
</style>
<g>
	<g>
		
			<linearGradient id="SVGID_1_" gradientUnits="userSpaceOnUse" x1="0" y1="255.8898" x2="512" y2="255.8898" gradientTransform="matrix(1 0 0 -1 0 511.8898)">
			<stop  offset="0" style="stop-color:#7F0299"/>
			<stop  offset="1" style="stop-color:#540554"/>
		</linearGradient>
		<circle class="st0" cx="256" cy="256" r="256"/>
		
			<linearGradient id="SVGID_2_" gradientUnits="userSpaceOnUse" x1="42.6667" y1="255.8892" x2="469.3333" y2="255.8892" gradientTransform="matrix(1 0 0 -1 0 511.8898)">
			<stop  offset="0" style="stop-color:#540554"/>
			<stop  offset="1" style="stop-color:#7F0299"/>
		</linearGradient>
		<path class="st1" d="M256,469.3c-117.6,0-213.3-95.7-213.3-213.3c0-117.6,95.7-213.3,213.3-213.3c117.6,0,213.3,95.7,213.3,213.3
			C469.3,373.6,373.6,469.3,256,469.3z"/>
	</g>
	<g>
		<path class="st2" d="M365.6,196.4c-10.1,0-18.4,8.2-18.4,18.4c0,5,2,9.5,5.2,12.8l-37.7,36.5l-39.1-62
			c6.2-3.9,10.3-10.8,10.3-18.6c0-12.2-9.9-22.1-22.1-22.1c-12.2,0-22.1,9.9-22.1,22.1c0,7.9,4.1,14.7,10.3,18.6l-39.1,62
			l-37.7-36.5c3.2-3.3,5.2-7.8,5.2-12.8c0-10.1-8.2-18.4-18.4-18.4s-18.4,8.2-18.4,18.4c0,10.1,8.2,18.4,18.4,18.4
			c1.1,0,2.2-0.1,3.3-0.3l17.4,84.5h162l17.4-84.5c1.1,0.2,2.1,0.3,3.3,0.3c10.1,0,18.4-8.2,18.4-18.4
			C384,204.7,375.8,196.4,365.6,196.4z"/>
		<polygon class="st2" points="185.1,327.4 175.5,366.6 352.4,366.6 342.9,327.4 		"/>
	</g>
	<g>
		<path class="st3" d="M357.6,188.4c-10.1,0-18.4,8.2-18.4,18.4c0,5,2,9.5,5.2,12.8l-37.7,36.5l-39.1-62
			c6.2-3.9,10.3-10.8,10.3-18.6c0-12.2-9.9-22.1-22.1-22.1c-12.2,0-22.1,9.9-22.1,22.1c0,7.9,4.1,14.7,10.3,18.6l-39.1,62
			l-37.7-36.5c3.2-3.3,5.2-7.8,5.2-12.8c0-10.1-8.2-18.4-18.4-18.4s-18.4,8.2-18.4,18.4c0,10.1,8.2,18.4,18.4,18.4
			c1.1,0,2.2-0.1,3.3-0.3l17.4,84.5h162l17.4-84.5c1.1,0.2,2.1,0.3,3.3,0.3c10.1,0,18.4-8.2,18.4-18.4
			C376,196.7,367.8,188.4,357.6,188.4z"/>
		<polygon class="st3" points="177.1,319.4 167.5,358.6 344.4,358.6 334.9,319.4 		"/>
	</g>
</g>
</svg>
